<mxfile host="app.diagrams.net" modified="2024-06-27T15:02:29.545Z" agent="Mozilla/5.0 (Windows NT 10.0; Win64; x64) AppleWebKit/537.36 (KHTML, like Gecko) Chrome/126.0.0.0 Safari/537.36" version="24.4.0" etag="LwpTEkAf5SsyTrYO4RhG" type="github">
  <diagram name="Trang-1" id="xD1ijKB_s0pnlnU6_1Ek">
    <mxGraphModel>
      <root>
        <mxCell id="0" />
        <mxCell id="1" parent="0" />
      </root>
    </mxGraphModel>
  </diagram>
</mxfile>
